<svg xmlns="http://www.w3.org/2000/svg" xmlns:xlink="http://www.w3.org/1999/xlink" width="400" zoomAndPan="magnify" viewBox="0 0 300 74.999997" height="100" preserveAspectRatio="xMidYMid meet" version="1.0"><defs><g/><clipPath id="ffda62b0cf"><path d="M 10 11.132812 L 63 11.132812 L 63 59.882812 L 10 59.882812 Z M 10 11.132812 " clip-rule="nonzero"/></clipPath><clipPath id="6d2709d9de"><rect x="0" width="125" y="0" height="16"/></clipPath></defs><g fill="#000000" fill-opacity="1"><g transform="translate(70.970098, 48.927073)"><g><path d="M 4.34375 0 L 4.34375 -37.4375 L 16.578125 -37.4375 C 20.640625 -37.4375 23.695312 -36.59375 25.75 -34.90625 C 27.800781 -33.226562 28.828125 -30.742188 28.828125 -27.453125 C 28.828125 -25.710938 28.328125 -24.164062 27.328125 -22.8125 C 26.335938 -21.46875 24.984375 -20.425781 23.265625 -19.6875 C 25.285156 -19.125 26.882812 -18.050781 28.0625 -16.46875 C 29.238281 -14.882812 29.828125 -12.992188 29.828125 -10.796875 C 29.828125 -7.441406 28.738281 -4.800781 26.5625 -2.875 C 24.382812 -0.957031 21.304688 0 17.328125 0 Z M 9.28125 -17.515625 L 9.28125 -4.03125 L 17.4375 -4.03125 C 19.726562 -4.03125 21.535156 -4.625 22.859375 -5.8125 C 24.191406 -7.007812 24.859375 -8.65625 24.859375 -10.75 C 24.859375 -15.257812 22.410156 -17.515625 17.515625 -17.515625 Z M 9.28125 -21.46875 L 16.734375 -21.46875 C 18.898438 -21.46875 20.628906 -22.003906 21.921875 -23.078125 C 23.210938 -24.160156 23.859375 -25.628906 23.859375 -27.484375 C 23.859375 -29.546875 23.257812 -31.039062 22.0625 -31.96875 C 20.863281 -32.90625 19.035156 -33.375 16.578125 -33.375 L 9.28125 -33.375 Z M 9.28125 -21.46875 "/></g></g></g><g fill="#000000" fill-opacity="1"><g transform="translate(104.64445, 48.927073)"><g><path d="M 8.765625 0 L 4.015625 0 L 4.015625 -39.5 L 8.765625 -39.5 Z M 8.765625 0 "/></g></g></g><g fill="#000000" fill-opacity="1"><g transform="translate(118.317083, 48.927073)"><g><path d="M 20.78125 -2.75 C 18.925781 -0.570312 16.207031 0.515625 12.625 0.515625 C 9.65625 0.515625 7.394531 -0.34375 5.84375 -2.0625 C 4.289062 -3.789062 3.507812 -6.34375 3.5 -9.71875 L 3.5 -27.8125 L 8.25 -27.8125 L 8.25 -9.84375 C 8.25 -5.625 9.960938 -3.515625 13.390625 -3.515625 C 17.023438 -3.515625 19.441406 -4.867188 20.640625 -7.578125 L 20.640625 -27.8125 L 25.40625 -27.8125 L 25.40625 0 L 20.875 0 Z M 20.78125 -2.75 "/></g></g></g><g fill="#000000" fill-opacity="1"><g transform="translate(148.237899, 48.927073)"><g><path d="M 15.140625 0.515625 C 11.367188 0.515625 8.300781 -0.722656 5.9375 -3.203125 C 3.570312 -5.679688 2.390625 -8.992188 2.390625 -13.140625 L 2.390625 -14.015625 C 2.390625 -16.773438 2.914062 -19.238281 3.96875 -21.40625 C 5.019531 -23.570312 6.492188 -25.265625 8.390625 -26.484375 C 10.285156 -27.710938 12.335938 -28.328125 14.546875 -28.328125 C 18.171875 -28.328125 20.984375 -27.132812 22.984375 -24.75 C 24.992188 -22.375 26 -18.96875 26 -14.53125 L 26 -12.546875 L 7.140625 -12.546875 C 7.210938 -9.804688 8.015625 -7.59375 9.546875 -5.90625 C 11.085938 -4.21875 13.039062 -3.375 15.40625 -3.375 C 17.082031 -3.375 18.503906 -3.710938 19.671875 -4.390625 C 20.835938 -5.078125 21.859375 -5.988281 22.734375 -7.125 L 25.640625 -4.859375 C 23.304688 -1.273438 19.804688 0.515625 15.140625 0.515625 Z M 14.546875 -24.421875 C 12.628906 -24.421875 11.019531 -23.722656 9.71875 -22.328125 C 8.414062 -20.929688 7.609375 -18.972656 7.296875 -16.453125 L 21.234375 -16.453125 L 21.234375 -16.8125 C 21.097656 -19.226562 20.445312 -21.097656 19.28125 -22.421875 C 18.113281 -23.753906 16.535156 -24.421875 14.546875 -24.421875 Z M 14.546875 -24.421875 "/></g></g></g><g clip-path="url(#ffda62b0cf)"><path fill="#000000" d="M 57.230469 35.433594 C 57.230469 36.390625 57.230469 37.355469 57.230469 38.3125 C 57.230469 44.960938 57.230469 51.617188 57.230469 58.265625 C 57.230469 59.039062 56.574219 59.695312 55.800781 59.695312 C 54.253906 59.695312 52.710938 59.695312 51.164062 59.695312 C 40.164062 59.695312 29.160156 59.695312 18.160156 59.695312 C 17.386719 59.695312 16.734375 59.039062 16.734375 58.265625 C 16.734375 57.3125 16.734375 56.34375 16.734375 55.386719 C 16.734375 48.742188 16.734375 42.082031 16.734375 35.433594 C 16.734375 33.585938 19.589844 33.597656 19.589844 35.433594 C 19.589844 36.390625 19.589844 37.355469 19.589844 38.3125 C 19.589844 44.488281 19.589844 50.664062 19.589844 56.839844 C 20.664062 56.839844 21.726562 56.839844 22.800781 56.839844 C 33.324219 56.839844 43.847656 56.839844 54.375 56.839844 C 54.375 56.355469 54.375 55.871094 54.375 55.386719 C 54.375 48.742188 54.375 42.082031 54.375 35.433594 C 54.375 33.597656 57.230469 33.597656 57.230469 35.433594 Z M 62.535156 33.898438 C 55.351562 27.402344 48.175781 20.914062 41.003906 14.429688 C 39.984375 13.503906 38.972656 12.59375 37.953125 11.667969 C 37.363281 11.132812 36.527344 11.132812 35.933594 11.667969 C 28.730469 18.167969 21.523438 24.652344 14.316406 31.140625 C 13.296875 32.0625 12.277344 32.976562 11.257812 33.898438 C 9.882812 35.132812 11.910156 37.152344 13.273438 35.917969 C 20.480469 29.433594 27.675781 22.945312 34.882812 16.457031 C 35.570312 15.847656 36.246094 15.234375 36.933594 14.613281 C 43.773438 20.796875 50.613281 26.984375 57.457031 33.160156 C 58.476562 34.082031 59.484375 34.996094 60.507812 35.917969 C 61.871094 37.140625 63.898438 35.132812 62.535156 33.898438 Z M 51.558594 19.390625 C 51.558594 18.820312 51.558594 18.261719 51.558594 17.695312 C 52.71875 17.695312 53.878906 17.695312 55.039062 17.695312 C 55.039062 20.25 55.039062 22.804688 55.039062 25.363281 C 55.039062 27.199219 57.894531 27.207031 57.894531 25.363281 C 57.894531 22.332031 57.894531 19.304688 57.894531 16.265625 C 57.894531 15.492188 57.242188 14.835938 56.46875 14.835938 C 54.351562 14.835938 52.246094 14.835938 50.132812 14.835938 C 49.359375 14.835938 48.703125 15.492188 48.703125 16.265625 C 48.703125 17.308594 48.703125 18.347656 48.703125 19.390625 C 48.691406 21.238281 51.558594 21.238281 51.558594 19.390625 Z M 51.558594 19.390625 " fill-opacity="1" fill-rule="nonzero"/></g><g fill="#000000" fill-opacity="1"><g transform="translate(185.369508, 49.067967)"><g><path d="M 31.984375 -4.90625 C 30.710938 -3.09375 28.941406 -1.734375 26.671875 -0.828125 C 24.398438 0.0664062 21.757812 0.515625 18.75 0.515625 C 15.695312 0.515625 12.988281 -0.195312 10.625 -1.625 C 8.257812 -3.0625 6.425781 -5.097656 5.125 -7.734375 C 3.832031 -10.378906 3.171875 -13.441406 3.140625 -16.921875 L 3.140625 -20.1875 C 3.140625 -25.820312 4.453125 -30.191406 7.078125 -33.296875 C 9.710938 -36.398438 13.410156 -37.953125 18.171875 -37.953125 C 22.085938 -37.953125 25.234375 -36.953125 27.609375 -34.953125 C 29.992188 -32.953125 31.453125 -30.117188 31.984375 -26.453125 L 27.046875 -26.453125 C 26.117188 -31.410156 23.171875 -33.890625 18.203125 -33.890625 C 14.890625 -33.890625 12.378906 -32.726562 10.671875 -30.40625 C 8.972656 -28.082031 8.113281 -24.71875 8.09375 -20.3125 L 8.09375 -17.25 C 8.09375 -13.050781 9.050781 -9.710938 10.96875 -7.234375 C 12.894531 -4.753906 15.492188 -3.515625 18.765625 -3.515625 C 20.617188 -3.515625 22.238281 -3.71875 23.625 -4.125 C 25.019531 -4.539062 26.171875 -5.238281 27.078125 -6.21875 L 27.078125 -14.625 L 18.40625 -14.625 L 18.40625 -18.640625 L 31.984375 -18.640625 Z M 31.984375 -4.90625 "/></g></g></g><g fill="#000000" fill-opacity="1"><g transform="translate(222.128958, 49.067967)"><g><path d="M 17.046875 -23.546875 C 16.328125 -23.671875 15.546875 -23.734375 14.703125 -23.734375 C 11.585938 -23.734375 9.472656 -22.40625 8.359375 -19.75 L 8.359375 0 L 3.59375 0 L 3.59375 -27.8125 L 8.234375 -27.8125 L 8.296875 -24.609375 C 9.859375 -27.085938 12.070312 -28.328125 14.9375 -28.328125 C 15.863281 -28.328125 16.566406 -28.207031 17.046875 -27.96875 Z M 17.046875 -23.546875 "/></g></g></g><g fill="#000000" fill-opacity="1"><g transform="translate(240.840584, 49.067967)"><g><path d="M 8.765625 0 L 4.015625 0 L 4.015625 -27.8125 L 8.765625 -27.8125 Z M 3.625 -35.203125 C 3.625 -35.972656 3.859375 -36.625 4.328125 -37.15625 C 4.804688 -37.6875 5.503906 -37.953125 6.421875 -37.953125 C 7.347656 -37.953125 8.050781 -37.6875 8.53125 -37.15625 C 9.007812 -36.625 9.25 -35.972656 9.25 -35.203125 C 9.25 -34.429688 9.007812 -33.785156 8.53125 -33.265625 C 8.050781 -32.753906 7.347656 -32.5 6.421875 -32.5 C 5.503906 -32.5 4.804688 -32.753906 4.328125 -33.265625 C 3.859375 -33.785156 3.625 -34.429688 3.625 -35.203125 Z M 3.625 -35.203125 "/></g></g></g><g fill="#000000" fill-opacity="1"><g transform="translate(254.513217, 49.067967)"><g><path d="M 2.4375 -14.140625 C 2.4375 -18.410156 3.445312 -21.84375 5.46875 -24.4375 C 7.5 -27.03125 10.148438 -28.328125 13.421875 -28.328125 C 16.679688 -28.328125 19.257812 -27.210938 21.15625 -24.984375 L 21.15625 -39.5 L 25.921875 -39.5 L 25.921875 0 L 21.546875 0 L 21.3125 -2.984375 C 19.40625 -0.648438 16.757812 0.515625 13.375 0.515625 C 10.144531 0.515625 7.515625 -0.800781 5.484375 -3.4375 C 3.453125 -6.082031 2.4375 -9.53125 2.4375 -13.78125 Z M 7.203125 -13.59375 C 7.203125 -10.445312 7.851562 -7.976562 9.15625 -6.1875 C 10.457031 -4.40625 12.253906 -3.515625 14.546875 -3.515625 C 17.566406 -3.515625 19.769531 -4.867188 21.15625 -7.578125 L 21.15625 -20.359375 C 19.738281 -22.984375 17.554688 -24.296875 14.609375 -24.296875 C 12.273438 -24.296875 10.457031 -23.394531 9.15625 -21.59375 C 7.851562 -19.789062 7.203125 -17.125 7.203125 -13.59375 Z M 7.203125 -13.59375 "/></g></g></g><g transform="matrix(1, 0, 0, 1, 116, 53)"><g clip-path="url(#6d2709d9de)"><g fill="#000000" fill-opacity="1"><g transform="translate(0.677919, 12.028186)"><g><path d="M 2.28125 -3.609375 L 2.28125 0 L 1.078125 0 L 1.078125 -9.234375 L 4.46875 -9.234375 C 5.476562 -9.234375 6.269531 -8.972656 6.84375 -8.453125 C 7.414062 -7.941406 7.703125 -7.257812 7.703125 -6.40625 C 7.703125 -5.507812 7.421875 -4.816406 6.859375 -4.328125 C 6.304688 -3.847656 5.507812 -3.609375 4.46875 -3.609375 Z M 2.28125 -4.609375 L 4.46875 -4.609375 C 5.125 -4.609375 5.625 -4.757812 5.96875 -5.0625 C 6.320312 -5.375 6.5 -5.816406 6.5 -6.390625 C 6.5 -6.941406 6.320312 -7.378906 5.96875 -7.703125 C 5.625 -8.035156 5.148438 -8.210938 4.546875 -8.234375 L 2.28125 -8.234375 Z M 2.28125 -4.609375 "/></g></g></g><g fill="#000000" fill-opacity="1"><g transform="translate(9.086836, 12.028186)"><g><path d="M 4.203125 -5.8125 C 4.023438 -5.84375 3.832031 -5.859375 3.625 -5.859375 C 2.851562 -5.859375 2.332031 -5.53125 2.0625 -4.875 L 2.0625 0 L 0.890625 0 L 0.890625 -6.859375 L 2.03125 -6.859375 L 2.046875 -6.0625 C 2.429688 -6.675781 2.976562 -6.984375 3.6875 -6.984375 C 3.914062 -6.984375 4.085938 -6.953125 4.203125 -6.890625 Z M 4.203125 -5.8125 "/></g></g></g><g fill="#000000" fill-opacity="1"><g transform="translate(13.572761, 12.028186)"><g><path d="M 0.578125 -3.5 C 0.578125 -4.164062 0.707031 -4.765625 0.96875 -5.296875 C 1.238281 -5.835938 1.609375 -6.253906 2.078125 -6.546875 C 2.546875 -6.835938 3.082031 -6.984375 3.6875 -6.984375 C 4.625 -6.984375 5.378906 -6.660156 5.953125 -6.015625 C 6.535156 -5.367188 6.828125 -4.507812 6.828125 -3.4375 L 6.828125 -3.359375 C 6.828125 -2.691406 6.695312 -2.09375 6.4375 -1.5625 C 6.1875 -1.03125 5.820312 -0.613281 5.34375 -0.3125 C 4.863281 -0.0195312 4.316406 0.125 3.703125 0.125 C 2.773438 0.125 2.019531 -0.195312 1.4375 -0.84375 C 0.863281 -1.488281 0.578125 -2.34375 0.578125 -3.40625 Z M 1.75 -3.359375 C 1.75 -2.597656 1.925781 -1.984375 2.28125 -1.515625 C 2.632812 -1.054688 3.109375 -0.828125 3.703125 -0.828125 C 4.296875 -0.828125 4.769531 -1.0625 5.125 -1.53125 C 5.476562 -2 5.65625 -2.65625 5.65625 -3.5 C 5.65625 -4.25 5.472656 -4.851562 5.109375 -5.3125 C 4.753906 -5.78125 4.28125 -6.015625 3.6875 -6.015625 C 3.113281 -6.015625 2.644531 -5.785156 2.28125 -5.328125 C 1.925781 -4.867188 1.75 -4.210938 1.75 -3.359375 Z M 1.75 -3.359375 "/></g></g></g><g fill="#000000" fill-opacity="1"><g transform="translate(21.195814, 12.028186)"><g><path d="M 6.6875 -3.359375 C 6.6875 -2.304688 6.445312 -1.460938 5.96875 -0.828125 C 5.488281 -0.191406 4.84375 0.125 4.03125 0.125 C 3.195312 0.125 2.539062 -0.140625 2.0625 -0.671875 L 2.0625 2.640625 L 0.890625 2.640625 L 0.890625 -6.859375 L 1.953125 -6.859375 L 2.015625 -6.09375 C 2.492188 -6.6875 3.15625 -6.984375 4 -6.984375 C 4.832031 -6.984375 5.488281 -6.671875 5.96875 -6.046875 C 6.445312 -5.429688 6.6875 -4.570312 6.6875 -3.46875 Z M 5.515625 -3.484375 C 5.515625 -4.253906 5.347656 -4.863281 5.015625 -5.3125 C 4.679688 -5.757812 4.226562 -5.984375 3.65625 -5.984375 C 2.945312 -5.984375 2.414062 -5.671875 2.0625 -5.046875 L 2.0625 -1.765625 C 2.414062 -1.140625 2.953125 -0.828125 3.671875 -0.828125 C 4.234375 -0.828125 4.679688 -1.050781 5.015625 -1.5 C 5.347656 -1.945312 5.515625 -2.609375 5.515625 -3.484375 Z M 5.515625 -3.484375 "/></g></g></g><g fill="#000000" fill-opacity="1"><g transform="translate(28.698457, 12.028186)"><g><path d="M 3.734375 0.125 C 2.804688 0.125 2.050781 -0.175781 1.46875 -0.78125 C 0.882812 -1.394531 0.59375 -2.210938 0.59375 -3.234375 L 0.59375 -3.453125 C 0.59375 -4.128906 0.722656 -4.734375 0.984375 -5.265625 C 1.242188 -5.804688 1.601562 -6.226562 2.0625 -6.53125 C 2.53125 -6.832031 3.039062 -6.984375 3.59375 -6.984375 C 4.476562 -6.984375 5.164062 -6.6875 5.65625 -6.09375 C 6.15625 -5.507812 6.40625 -4.671875 6.40625 -3.578125 L 6.40625 -3.09375 L 1.765625 -3.09375 C 1.773438 -2.414062 1.96875 -1.867188 2.34375 -1.453125 C 2.726562 -1.035156 3.210938 -0.828125 3.796875 -0.828125 C 4.210938 -0.828125 4.5625 -0.910156 4.84375 -1.078125 C 5.132812 -1.253906 5.390625 -1.476562 5.609375 -1.75 L 6.328125 -1.203125 C 5.742188 -0.316406 4.878906 0.125 3.734375 0.125 Z M 3.59375 -6.015625 C 3.113281 -6.015625 2.710938 -5.84375 2.390625 -5.5 C 2.078125 -5.15625 1.878906 -4.675781 1.796875 -4.0625 L 5.234375 -4.0625 L 5.234375 -4.140625 C 5.203125 -4.742188 5.039062 -5.207031 4.75 -5.53125 C 4.46875 -5.851562 4.082031 -6.015625 3.59375 -6.015625 Z M 3.59375 -6.015625 "/></g></g></g><g fill="#000000" fill-opacity="1"><g transform="translate(35.795493, 12.028186)"><g><path d="M 4.203125 -5.8125 C 4.023438 -5.84375 3.832031 -5.859375 3.625 -5.859375 C 2.851562 -5.859375 2.332031 -5.53125 2.0625 -4.875 L 2.0625 0 L 0.890625 0 L 0.890625 -6.859375 L 2.03125 -6.859375 L 2.046875 -6.0625 C 2.429688 -6.675781 2.976562 -6.984375 3.6875 -6.984375 C 3.914062 -6.984375 4.085938 -6.953125 4.203125 -6.890625 Z M 4.203125 -5.8125 "/></g></g></g><g fill="#000000" fill-opacity="1"><g transform="translate(40.725097, 12.028186)"><g><path d="M 2.484375 -8.515625 L 2.484375 -6.859375 L 3.765625 -6.859375 L 3.765625 -5.953125 L 2.484375 -5.953125 L 2.484375 -1.703125 C 2.484375 -1.421875 2.539062 -1.210938 2.65625 -1.078125 C 2.769531 -0.941406 2.960938 -0.875 3.234375 -0.875 C 3.367188 -0.875 3.554688 -0.898438 3.796875 -0.953125 L 3.796875 0 C 3.484375 0.0820312 3.179688 0.125 2.890625 0.125 C 2.367188 0.125 1.972656 -0.03125 1.703125 -0.34375 C 1.441406 -0.664062 1.3125 -1.117188 1.3125 -1.703125 L 1.3125 -5.953125 L 0.0625 -5.953125 L 0.0625 -6.859375 L 1.3125 -6.859375 L 1.3125 -8.515625 Z M 2.484375 -8.515625 "/></g></g></g><g fill="#000000" fill-opacity="1"><g transform="translate(45.185684, 12.028186)"><g><path d="M 3.125 -1.71875 L 4.734375 -6.859375 L 5.984375 -6.859375 L 3.234375 1.0625 C 2.804688 2.195312 2.125 2.765625 1.1875 2.765625 L 0.96875 2.75 L 0.53125 2.671875 L 0.53125 1.71875 L 0.84375 1.75 C 1.25 1.75 1.5625 1.664062 1.78125 1.5 C 2 1.34375 2.179688 1.050781 2.328125 0.625 L 2.59375 -0.078125 L 0.140625 -6.859375 L 1.421875 -6.859375 Z M 3.125 -1.71875 "/></g></g></g><g fill="#000000" fill-opacity="1"><g transform="translate(51.547556, 12.028186)"><g/></g></g><g fill="#000000" fill-opacity="1"><g transform="translate(54.981448, 12.028186)"><g><path d="M 2.375 0 L 1.15625 0 L 1.15625 -9.234375 L 2.375 -9.234375 Z M 2.375 0 "/></g></g></g><g fill="#000000" fill-opacity="1"><g transform="translate(58.732221, 12.028186)"><g><path d="M 2 -6.859375 L 2.03125 -6 C 2.5625 -6.65625 3.25 -6.984375 4.09375 -6.984375 C 5.539062 -6.984375 6.269531 -6.164062 6.28125 -4.53125 L 6.28125 0 L 5.109375 0 L 5.109375 -4.546875 C 5.109375 -5.035156 4.992188 -5.394531 4.765625 -5.625 C 4.546875 -5.863281 4.203125 -5.984375 3.734375 -5.984375 C 3.347656 -5.984375 3.007812 -5.878906 2.71875 -5.671875 C 2.4375 -5.472656 2.21875 -5.210938 2.0625 -4.890625 L 2.0625 0 L 0.890625 0 L 0.890625 -6.859375 Z M 2 -6.859375 "/></g></g></g><g fill="#000000" fill-opacity="1"><g transform="translate(66.114444, 12.028186)"><g><path d="M 4.875 -1.8125 C 4.875 -2.132812 4.753906 -2.382812 4.515625 -2.5625 C 4.285156 -2.738281 3.875 -2.890625 3.28125 -3.015625 C 2.6875 -3.140625 2.210938 -3.289062 1.859375 -3.46875 C 1.515625 -3.644531 1.257812 -3.851562 1.09375 -4.09375 C 0.925781 -4.34375 0.84375 -4.640625 0.84375 -4.984375 C 0.84375 -5.535156 1.078125 -6.003906 1.546875 -6.390625 C 2.023438 -6.785156 2.632812 -6.984375 3.375 -6.984375 C 4.15625 -6.984375 4.785156 -6.78125 5.265625 -6.375 C 5.742188 -5.976562 5.984375 -5.46875 5.984375 -4.84375 L 4.8125 -4.84375 C 4.8125 -5.164062 4.675781 -5.441406 4.40625 -5.671875 C 4.132812 -5.898438 3.789062 -6.015625 3.375 -6.015625 C 2.945312 -6.015625 2.613281 -5.921875 2.375 -5.734375 C 2.132812 -5.554688 2.015625 -5.316406 2.015625 -5.015625 C 2.015625 -4.734375 2.125 -4.519531 2.34375 -4.375 C 2.570312 -4.226562 2.976562 -4.085938 3.5625 -3.953125 C 4.144531 -3.828125 4.617188 -3.671875 4.984375 -3.484375 C 5.347656 -3.304688 5.617188 -3.085938 5.796875 -2.828125 C 5.972656 -2.578125 6.0625 -2.269531 6.0625 -1.90625 C 6.0625 -1.289062 5.8125 -0.796875 5.3125 -0.421875 C 4.820312 -0.0546875 4.1875 0.125 3.40625 0.125 C 2.863281 0.125 2.378906 0.03125 1.953125 -0.15625 C 1.523438 -0.351562 1.191406 -0.625 0.953125 -0.96875 C 0.722656 -1.320312 0.609375 -1.703125 0.609375 -2.109375 L 1.78125 -2.109375 C 1.800781 -1.710938 1.957031 -1.398438 2.25 -1.171875 C 2.539062 -0.941406 2.925781 -0.828125 3.40625 -0.828125 C 3.851562 -0.828125 4.207031 -0.914062 4.46875 -1.09375 C 4.738281 -1.28125 4.875 -1.519531 4.875 -1.8125 Z M 4.875 -1.8125 "/></g></g></g><g fill="#000000" fill-opacity="1"><g transform="translate(73.027683, 12.028186)"><g><path d="M 6.6875 -3.359375 C 6.6875 -2.304688 6.445312 -1.460938 5.96875 -0.828125 C 5.488281 -0.191406 4.84375 0.125 4.03125 0.125 C 3.195312 0.125 2.539062 -0.140625 2.0625 -0.671875 L 2.0625 2.640625 L 0.890625 2.640625 L 0.890625 -6.859375 L 1.953125 -6.859375 L 2.015625 -6.09375 C 2.492188 -6.6875 3.15625 -6.984375 4 -6.984375 C 4.832031 -6.984375 5.488281 -6.671875 5.96875 -6.046875 C 6.445312 -5.429688 6.6875 -4.570312 6.6875 -3.46875 Z M 5.515625 -3.484375 C 5.515625 -4.253906 5.347656 -4.863281 5.015625 -5.3125 C 4.679688 -5.757812 4.226562 -5.984375 3.65625 -5.984375 C 2.945312 -5.984375 2.414062 -5.671875 2.0625 -5.046875 L 2.0625 -1.765625 C 2.414062 -1.140625 2.953125 -0.828125 3.671875 -0.828125 C 4.234375 -0.828125 4.679688 -1.050781 5.015625 -1.5 C 5.347656 -1.945312 5.515625 -2.609375 5.515625 -3.484375 Z M 5.515625 -3.484375 "/></g></g></g><g fill="#000000" fill-opacity="1"><g transform="translate(80.530326, 12.028186)"><g><path d="M 3.734375 0.125 C 2.804688 0.125 2.050781 -0.175781 1.46875 -0.78125 C 0.882812 -1.394531 0.59375 -2.210938 0.59375 -3.234375 L 0.59375 -3.453125 C 0.59375 -4.128906 0.722656 -4.734375 0.984375 -5.265625 C 1.242188 -5.804688 1.601562 -6.226562 2.0625 -6.53125 C 2.53125 -6.832031 3.039062 -6.984375 3.59375 -6.984375 C 4.476562 -6.984375 5.164062 -6.6875 5.65625 -6.09375 C 6.15625 -5.507812 6.40625 -4.671875 6.40625 -3.578125 L 6.40625 -3.09375 L 1.765625 -3.09375 C 1.773438 -2.414062 1.96875 -1.867188 2.34375 -1.453125 C 2.726562 -1.035156 3.210938 -0.828125 3.796875 -0.828125 C 4.210938 -0.828125 4.5625 -0.910156 4.84375 -1.078125 C 5.132812 -1.253906 5.390625 -1.476562 5.609375 -1.75 L 6.328125 -1.203125 C 5.742188 -0.316406 4.878906 0.125 3.734375 0.125 Z M 3.59375 -6.015625 C 3.113281 -6.015625 2.710938 -5.84375 2.390625 -5.5 C 2.078125 -5.15625 1.878906 -4.675781 1.796875 -4.0625 L 5.234375 -4.0625 L 5.234375 -4.140625 C 5.203125 -4.742188 5.039062 -5.207031 4.75 -5.53125 C 4.46875 -5.851562 4.082031 -6.015625 3.59375 -6.015625 Z M 3.59375 -6.015625 "/></g></g></g><g fill="#000000" fill-opacity="1"><g transform="translate(87.627362, 12.028186)"><g><path d="M 3.640625 -0.828125 C 4.054688 -0.828125 4.421875 -0.953125 4.734375 -1.203125 C 5.046875 -1.460938 5.21875 -1.78125 5.25 -2.15625 L 6.359375 -2.15625 C 6.335938 -1.769531 6.203125 -1.394531 5.953125 -1.03125 C 5.703125 -0.675781 5.367188 -0.394531 4.953125 -0.1875 C 4.546875 0.0195312 4.109375 0.125 3.640625 0.125 C 2.703125 0.125 1.957031 -0.1875 1.40625 -0.8125 C 0.851562 -1.4375 0.578125 -2.285156 0.578125 -3.359375 L 0.578125 -3.5625 C 0.578125 -4.226562 0.695312 -4.820312 0.9375 -5.34375 C 1.1875 -5.863281 1.539062 -6.265625 2 -6.546875 C 2.457031 -6.835938 3.003906 -6.984375 3.640625 -6.984375 C 4.398438 -6.984375 5.035156 -6.753906 5.546875 -6.296875 C 6.054688 -5.835938 6.328125 -5.238281 6.359375 -4.5 L 5.25 -4.5 C 5.21875 -4.945312 5.050781 -5.3125 4.75 -5.59375 C 4.445312 -5.875 4.078125 -6.015625 3.640625 -6.015625 C 3.035156 -6.015625 2.566406 -5.800781 2.234375 -5.375 C 1.910156 -4.945312 1.75 -4.328125 1.75 -3.515625 L 1.75 -3.296875 C 1.75 -2.503906 1.910156 -1.894531 2.234375 -1.46875 C 2.566406 -1.039062 3.035156 -0.828125 3.640625 -0.828125 Z M 3.640625 -0.828125 "/></g></g></g><g fill="#000000" fill-opacity="1"><g transform="translate(94.642003, 12.028186)"><g><path d="M 2.484375 -8.515625 L 2.484375 -6.859375 L 3.765625 -6.859375 L 3.765625 -5.953125 L 2.484375 -5.953125 L 2.484375 -1.703125 C 2.484375 -1.421875 2.539062 -1.210938 2.65625 -1.078125 C 2.769531 -0.941406 2.960938 -0.875 3.234375 -0.875 C 3.367188 -0.875 3.554688 -0.898438 3.796875 -0.953125 L 3.796875 0 C 3.484375 0.0820312 3.179688 0.125 2.890625 0.125 C 2.367188 0.125 1.972656 -0.03125 1.703125 -0.34375 C 1.441406 -0.664062 1.3125 -1.117188 1.3125 -1.703125 L 1.3125 -5.953125 L 0.0625 -5.953125 L 0.0625 -6.859375 L 1.3125 -6.859375 L 1.3125 -8.515625 Z M 2.484375 -8.515625 "/></g></g></g><g fill="#000000" fill-opacity="1"><g transform="translate(99.102589, 12.028186)"><g><path d="M 2.15625 0 L 0.984375 0 L 0.984375 -6.859375 L 2.15625 -6.859375 Z M 0.890625 -8.671875 C 0.890625 -8.867188 0.945312 -9.03125 1.0625 -9.15625 C 1.1875 -9.289062 1.359375 -9.359375 1.578125 -9.359375 C 1.804688 -9.359375 1.976562 -9.289062 2.09375 -9.15625 C 2.21875 -9.03125 2.28125 -8.867188 2.28125 -8.671875 C 2.28125 -8.484375 2.21875 -8.328125 2.09375 -8.203125 C 1.976562 -8.078125 1.804688 -8.015625 1.578125 -8.015625 C 1.359375 -8.015625 1.1875 -8.078125 1.0625 -8.203125 C 0.945312 -8.328125 0.890625 -8.484375 0.890625 -8.671875 Z M 0.890625 -8.671875 "/></g></g></g><g fill="#000000" fill-opacity="1"><g transform="translate(102.473105, 12.028186)"><g><path d="M 0.578125 -3.5 C 0.578125 -4.164062 0.707031 -4.765625 0.96875 -5.296875 C 1.238281 -5.835938 1.609375 -6.253906 2.078125 -6.546875 C 2.546875 -6.835938 3.082031 -6.984375 3.6875 -6.984375 C 4.625 -6.984375 5.378906 -6.660156 5.953125 -6.015625 C 6.535156 -5.367188 6.828125 -4.507812 6.828125 -3.4375 L 6.828125 -3.359375 C 6.828125 -2.691406 6.695312 -2.09375 6.4375 -1.5625 C 6.1875 -1.03125 5.820312 -0.613281 5.34375 -0.3125 C 4.863281 -0.0195312 4.316406 0.125 3.703125 0.125 C 2.773438 0.125 2.019531 -0.195312 1.4375 -0.84375 C 0.863281 -1.488281 0.578125 -2.34375 0.578125 -3.40625 Z M 1.75 -3.359375 C 1.75 -2.597656 1.925781 -1.984375 2.28125 -1.515625 C 2.632812 -1.054688 3.109375 -0.828125 3.703125 -0.828125 C 4.296875 -0.828125 4.769531 -1.0625 5.125 -1.53125 C 5.476562 -2 5.65625 -2.65625 5.65625 -3.5 C 5.65625 -4.25 5.472656 -4.851562 5.109375 -5.3125 C 4.753906 -5.78125 4.28125 -6.015625 3.6875 -6.015625 C 3.113281 -6.015625 2.644531 -5.785156 2.28125 -5.328125 C 1.925781 -4.867188 1.75 -4.210938 1.75 -3.359375 Z M 1.75 -3.359375 "/></g></g></g><g fill="#000000" fill-opacity="1"><g transform="translate(110.096158, 12.028186)"><g><path d="M 2 -6.859375 L 2.03125 -6 C 2.5625 -6.65625 3.25 -6.984375 4.09375 -6.984375 C 5.539062 -6.984375 6.269531 -6.164062 6.28125 -4.53125 L 6.28125 0 L 5.109375 0 L 5.109375 -4.546875 C 5.109375 -5.035156 4.992188 -5.394531 4.765625 -5.625 C 4.546875 -5.863281 4.203125 -5.984375 3.734375 -5.984375 C 3.347656 -5.984375 3.007812 -5.878906 2.71875 -5.671875 C 2.4375 -5.472656 2.21875 -5.210938 2.0625 -4.890625 L 2.0625 0 L 0.890625 0 L 0.890625 -6.859375 Z M 2 -6.859375 "/></g></g></g><g fill="#000000" fill-opacity="1"><g transform="translate(117.47838, 12.028186)"><g><path d="M 4.875 -1.8125 C 4.875 -2.132812 4.753906 -2.382812 4.515625 -2.5625 C 4.285156 -2.738281 3.875 -2.890625 3.28125 -3.015625 C 2.6875 -3.140625 2.210938 -3.289062 1.859375 -3.46875 C 1.515625 -3.644531 1.257812 -3.851562 1.09375 -4.09375 C 0.925781 -4.34375 0.84375 -4.640625 0.84375 -4.984375 C 0.84375 -5.535156 1.078125 -6.003906 1.546875 -6.390625 C 2.023438 -6.785156 2.632812 -6.984375 3.375 -6.984375 C 4.15625 -6.984375 4.785156 -6.78125 5.265625 -6.375 C 5.742188 -5.976562 5.984375 -5.46875 5.984375 -4.84375 L 4.8125 -4.84375 C 4.8125 -5.164062 4.675781 -5.441406 4.40625 -5.671875 C 4.132812 -5.898438 3.789062 -6.015625 3.375 -6.015625 C 2.945312 -6.015625 2.613281 -5.921875 2.375 -5.734375 C 2.132812 -5.554688 2.015625 -5.316406 2.015625 -5.015625 C 2.015625 -4.734375 2.125 -4.519531 2.34375 -4.375 C 2.570312 -4.226562 2.976562 -4.085938 3.5625 -3.953125 C 4.144531 -3.828125 4.617188 -3.671875 4.984375 -3.484375 C 5.347656 -3.304688 5.617188 -3.085938 5.796875 -2.828125 C 5.972656 -2.578125 6.0625 -2.269531 6.0625 -1.90625 C 6.0625 -1.289062 5.8125 -0.796875 5.3125 -0.421875 C 4.820312 -0.0546875 4.1875 0.125 3.40625 0.125 C 2.863281 0.125 2.378906 0.03125 1.953125 -0.15625 C 1.523438 -0.351562 1.191406 -0.625 0.953125 -0.96875 C 0.722656 -1.320312 0.609375 -1.703125 0.609375 -2.109375 L 1.78125 -2.109375 C 1.800781 -1.710938 1.957031 -1.398438 2.25 -1.171875 C 2.539062 -0.941406 2.925781 -0.828125 3.40625 -0.828125 C 3.851562 -0.828125 4.207031 -0.914062 4.46875 -1.09375 C 4.738281 -1.28125 4.875 -1.519531 4.875 -1.8125 Z M 4.875 -1.8125 "/></g></g></g></g></g></svg>