<?xml version="1.0" standalone="no"?>
<!DOCTYPE svg PUBLIC "-//W3C//DTD SVG 20010904//EN"
 "http://www.w3.org/TR/2001/REC-SVG-20010904/DTD/svg10.dtd">
<svg version="1.0" xmlns="http://www.w3.org/2000/svg"
 width="500.000000pt" height="500.000000pt" viewBox="0 0 500.000000 500.000000"
 preserveAspectRatio="xMidYMid meet">

<g transform="translate(0.000000,500.000000) scale(0.100000,-0.100000)"
fill="#000000" stroke="none">
<path d="M2340 4734 c-825 -76 -1506 -566 -1828 -1317 -199 -463 -221 -1023
-60 -1515 74 -227 230 -508 382 -691 85 -102 273 -282 368 -354 960 -719 2314
-524 3031 437 489 655 562 1545 186 2278 -315 612 -906 1035 -1598 1143 -102
16 -391 27 -481 19z m336 -125 c254 -24 482 -88 703 -194 341 -165 617 -407
824 -720 573 -869 393 -2032 -419 -2696 -397 -325 -940 -494 -1439 -450 -268
24 -496 86 -723 196 -219 106 -362 206 -536 375 -182 177 -300 338 -412 565
-141 284 -209 578 -207 900 1 479 159 919 462 1289 71 86 244 255 326 317 408
312 931 466 1421 418z"/>
<path d="M2157 3802 l-337 -337 0 150 c0 83 -5 167 -10 187 -11 39 -48 74 -88
85 -40 10 -101 -14 -122 -50 -19 -30 -20 -52 -20 -322 l0 -290 -261 -260
c-143 -143 -267 -273 -275 -289 -21 -39 -20 -109 3 -149 27 -47 100 -81 155
-72 41 7 76 40 663 626 341 340 625 619 630 619 5 0 286 -276 625 -614 664
-663 645 -647 730 -627 50 11 76 30 99 72 25 44 27 98 5 142 -18 36 -410 433
-1035 1047 l-425 419 -337 -337z"/>
<path d="M1897 2862 l-587 -587 0 -608 c0 -594 0 -607 20 -627 20 -20 33 -20
669 -20 582 0 649 2 655 16 3 9 6 256 6 550 l0 534 308 -2 307 -3 3 -547 2
-548 183 0 c142 0 188 3 203 14 18 14 19 34 22 629 l3 614 -592 587 c-325 322
-596 586 -603 586 -6 0 -275 -264 -599 -588z m383 -1002 l0 -260 -280 0 -280
0 0 260 0 260 280 0 280 0 0 -260z"/>
</g>
</svg>
