<svg xmlns="http://www.w3.org/2000/svg" xmlns:xlink="http://www.w3.org/1999/xlink" width="320" zoomAndPan="magnify" viewBox="0 0 240 74.999997" height="100" preserveAspectRatio="xMidYMid meet" version="1.0"><defs><g/><clipPath id="b5a2b63295"><path d="M 5 18.445312 L 47 18.445312 L 47 56.695312 L 5 56.695312 Z M 5 18.445312 " clip-rule="nonzero"/></clipPath><clipPath id="e449fe598c"><rect x="0" width="111" y="0" height="15"/></clipPath></defs><g clip-path="url(#b5a2b63295)"><path fill="#231f20" d="M 42.417969 37.585938 C 42.417969 38.339844 42.417969 39.101562 42.417969 39.851562 C 42.417969 45.089844 42.417969 50.332031 42.417969 55.570312 C 42.417969 56.179688 41.902344 56.695312 41.289062 56.695312 C 40.066406 56.695312 38.839844 56.695312 37.617188 56.695312 C 28.917969 56.695312 20.207031 56.695312 11.503906 56.695312 C 10.894531 56.695312 10.375 56.179688 10.375 55.570312 C 10.375 54.816406 10.375 54.054688 10.375 53.300781 C 10.375 48.066406 10.375 42.820312 10.375 37.585938 C 10.375 36.132812 12.636719 36.140625 12.636719 37.585938 C 12.636719 38.339844 12.636719 39.101562 12.636719 39.851562 C 12.636719 44.71875 12.636719 49.582031 12.636719 54.445312 C 13.484375 54.445312 14.328125 54.445312 15.175781 54.445312 C 23.503906 54.445312 31.832031 54.445312 40.160156 54.445312 C 40.160156 54.0625 40.160156 53.683594 40.160156 53.300781 C 40.160156 48.066406 40.160156 42.820312 40.160156 37.585938 C 40.160156 36.140625 42.417969 36.140625 42.417969 37.585938 Z M 46.617188 36.375 C 40.933594 31.257812 35.253906 26.148438 29.578125 21.042969 C 28.773438 20.3125 27.972656 19.59375 27.167969 18.867188 C 26.699219 18.445312 26.035156 18.445312 25.570312 18.867188 C 19.867188 23.984375 14.164062 29.09375 8.464844 34.203125 C 7.65625 34.929688 6.847656 35.648438 6.042969 36.375 C 4.953125 37.347656 6.558594 38.941406 7.640625 37.96875 C 13.339844 32.859375 19.035156 27.75 24.734375 22.640625 C 25.28125 22.15625 25.816406 21.675781 26.359375 21.183594 C 31.773438 26.058594 37.183594 30.929688 42.597656 35.792969 C 43.40625 36.519531 44.203125 37.238281 45.011719 37.96875 C 46.089844 38.929688 47.695312 37.347656 46.617188 36.375 Z M 37.933594 24.949219 C 37.933594 24.5 37.933594 24.0625 37.933594 23.613281 C 38.851562 23.613281 39.769531 23.613281 40.6875 23.613281 C 40.6875 25.625 40.6875 27.640625 40.6875 29.652344 C 40.6875 31.097656 42.945312 31.105469 42.945312 29.652344 C 42.945312 27.265625 42.945312 24.882812 42.945312 22.488281 C 42.945312 21.878906 42.425781 21.363281 41.816406 21.363281 C 40.140625 21.363281 38.476562 21.363281 36.800781 21.363281 C 36.191406 21.363281 35.671875 21.878906 35.671875 22.488281 C 35.671875 23.308594 35.671875 24.128906 35.671875 24.949219 C 35.664062 26.402344 37.933594 26.402344 37.933594 24.949219 Z M 37.933594 24.949219 " fill-opacity="1" fill-rule="nonzero"/></g><g fill="#000000" fill-opacity="1"><g transform="translate(56.566048, 41.061955)"><g><path d="M 1.441406 -9.414062 C 1.441406 -3.5625 5.765625 0.367188 11.136719 0.367188 C 14.21875 0.367188 16.789062 -0.933594 18.542969 -2.882812 L 18.542969 -9.695312 L 9.722656 -9.695312 L 9.722656 -7.605469 L 16.199219 -7.605469 L 16.199219 -3.757812 C 15.265625 -2.828125 13.398438 -1.722656 11.136719 -1.722656 C 7.011719 -1.722656 3.871094 -4.945312 3.871094 -9.414062 C 3.871094 -13.90625 7.011719 -17.074219 11.136719 -17.074219 C 13.398438 -17.074219 15.40625 -16 16.59375 -14.472656 L 18.457031 -15.632812 C 16.789062 -17.695312 14.472656 -19.164062 11.136719 -19.164062 C 5.765625 -19.164062 1.441406 -15.265625 1.441406 -9.414062 Z M 1.441406 -9.414062 "/></g></g></g><g fill="#000000" fill-opacity="1"><g transform="translate(77.030394, 41.061955)"><g><path d="M 8.085938 0.339844 C 12.238281 0.339844 14.839844 -2.882812 14.839844 -6.839844 C 14.839844 -10.796875 12.238281 -13.992188 8.085938 -13.992188 C 3.929688 -13.992188 1.328125 -10.796875 1.328125 -6.839844 C 1.328125 -2.882812 3.929688 0.339844 8.085938 0.339844 Z M 8.085938 -1.554688 C 5.171875 -1.554688 3.535156 -4.042969 3.535156 -6.839844 C 3.535156 -9.609375 5.171875 -12.097656 8.085938 -12.097656 C 10.996094 -12.097656 12.605469 -9.609375 12.605469 -6.839844 C 12.605469 -4.042969 10.996094 -1.554688 8.085938 -1.554688 Z M 8.085938 -1.554688 "/></g></g></g><g fill="#000000" fill-opacity="1"><g transform="translate(93.509279, 41.061955)"><g><path d="M 4.238281 0 L 4.238281 -18.855469 L 2.121094 -18.855469 L 2.121094 0 Z M 4.238281 0 "/></g></g></g><g fill="#000000" fill-opacity="1"><g transform="translate(100.179982, 41.061955)"><g><path d="M 14.132812 0 L 14.132812 -18.855469 L 12.015625 -18.855469 L 12.015625 -11.589844 C 10.910156 -13.085938 9.242188 -13.992188 7.40625 -13.992188 C 3.816406 -13.992188 1.328125 -11.164062 1.328125 -6.8125 C 1.328125 -2.375 3.84375 0.339844 7.40625 0.339844 C 9.328125 0.339844 10.996094 -0.648438 12.015625 -2.035156 L 12.015625 0 Z M 12.015625 -3.703125 C 11.25 -2.515625 9.609375 -1.554688 7.914062 -1.554688 C 5.171875 -1.554688 3.535156 -3.789062 3.535156 -6.8125 C 3.535156 -9.835938 5.171875 -12.097656 7.914062 -12.097656 C 9.609375 -12.097656 11.25 -11.082031 12.015625 -9.894531 Z M 12.015625 -3.703125 "/></g></g></g><g fill="#000000" fill-opacity="1"><g transform="translate(116.743667, 41.061955)"><g><path d="M 1.328125 -6.839844 C 1.328125 -2.574219 4.238281 0.339844 8.28125 0.339844 C 10.515625 0.339844 12.351562 -0.394531 13.710938 -1.753906 L 12.691406 -3.136719 C 11.617188 -2.035156 10.035156 -1.414062 8.480469 -1.414062 C 5.539062 -1.414062 3.730469 -3.5625 3.5625 -6.132812 L 14.613281 -6.132812 L 14.613281 -6.671875 C 14.613281 -10.769531 12.183594 -13.992188 8.054688 -13.992188 C 4.15625 -13.992188 1.328125 -10.796875 1.328125 -6.839844 Z M 8.027344 -12.238281 C 11.136719 -12.238281 12.496094 -9.722656 12.523438 -7.6875 L 3.5625 -7.6875 C 3.675781 -9.78125 5.117188 -12.238281 8.027344 -12.238281 Z M 8.027344 -12.238281 "/></g></g></g><g fill="#000000" fill-opacity="1"><g transform="translate(132.968161, 41.061955)"><g><path d="M 13.457031 0 L 13.457031 -9.582031 C 13.457031 -12.550781 11.957031 -13.992188 9.101562 -13.992188 C 7.066406 -13.992188 5.203125 -12.804688 4.238281 -11.675781 L 4.238281 -13.652344 L 2.121094 -13.652344 L 2.121094 0 L 4.238281 0 L 4.238281 -9.976562 C 5.03125 -11.082031 6.613281 -12.097656 8.28125 -12.097656 C 10.121094 -12.097656 11.335938 -11.335938 11.335938 -8.933594 L 11.335938 0 Z M 13.457031 0 "/></g></g></g><g fill="#000000" fill-opacity="1"><g transform="translate(148.853474, 41.061955)"><g/></g></g><g fill="#000000" fill-opacity="1"><g transform="translate(156.456951, 41.061955)"><g><path d="M 10.796875 0 C 14.246094 0 16.253906 -2.0625 16.253906 -5.089844 C 16.253906 -7.347656 14.585938 -9.414062 12.578125 -9.722656 C 14.304688 -10.089844 15.886719 -11.675781 15.886719 -14.050781 C 15.886719 -16.875 13.878906 -18.855469 10.601562 -18.855469 L 2.203125 -18.855469 L 2.203125 0 Z M 4.550781 -16.761719 L 10.203125 -16.761719 C 12.324219 -16.761719 13.457031 -15.40625 13.457031 -13.710938 C 13.457031 -11.984375 12.324219 -10.683594 10.203125 -10.683594 L 4.550781 -10.683594 Z M 4.550781 -8.59375 L 10.316406 -8.59375 C 12.636719 -8.59375 13.824219 -7.066406 13.824219 -5.34375 C 13.824219 -3.335938 12.523438 -2.089844 10.316406 -2.089844 L 4.550781 -2.089844 Z M 4.550781 -8.59375 "/></g></g></g><g fill="#000000" fill-opacity="1"><g transform="translate(174.54698, 41.061955)"><g><path d="M 4.238281 0 L 4.238281 -9.667969 C 4.863281 -10.769531 6.644531 -11.84375 7.941406 -11.84375 C 8.28125 -11.84375 8.535156 -11.816406 8.792969 -11.757812 L 8.792969 -13.9375 C 6.925781 -13.9375 5.34375 -12.890625 4.238281 -11.449219 L 4.238281 -13.652344 L 2.121094 -13.652344 L 2.121094 0 Z M 4.238281 0 "/></g></g></g><g fill="#000000" fill-opacity="1"><g transform="translate(184.185583, 41.061955)"><g><path d="M 3.164062 -15.941406 C 3.957031 -15.941406 4.609375 -16.59375 4.609375 -17.382812 C 4.609375 -18.175781 3.957031 -18.796875 3.164062 -18.796875 C 2.402344 -18.796875 1.753906 -18.175781 1.753906 -17.382812 C 1.753906 -16.59375 2.402344 -15.941406 3.164062 -15.941406 Z M 4.238281 0 L 4.238281 -13.652344 L 2.121094 -13.652344 L 2.121094 0 Z M 4.238281 0 "/></g></g></g><g fill="#000000" fill-opacity="1"><g transform="translate(190.856286, 41.061955)"><g><path d="M 14.132812 0 L 14.132812 -18.855469 L 12.015625 -18.855469 L 12.015625 -11.589844 C 10.910156 -13.085938 9.242188 -13.992188 7.40625 -13.992188 C 3.816406 -13.992188 1.328125 -11.164062 1.328125 -6.8125 C 1.328125 -2.375 3.84375 0.339844 7.40625 0.339844 C 9.328125 0.339844 10.996094 -0.648438 12.015625 -2.035156 L 12.015625 0 Z M 12.015625 -3.703125 C 11.25 -2.515625 9.609375 -1.554688 7.914062 -1.554688 C 5.171875 -1.554688 3.535156 -3.789062 3.535156 -6.8125 C 3.535156 -9.835938 5.171875 -12.097656 7.914062 -12.097656 C 9.609375 -12.097656 11.25 -11.082031 12.015625 -9.894531 Z M 12.015625 -3.703125 "/></g></g></g><g fill="#000000" fill-opacity="1"><g transform="translate(207.419971, 41.061955)"><g><path d="M 2.089844 3.503906 C 3.703125 5.089844 5.285156 5.539062 7.605469 5.539062 C 10.941406 5.539062 14.105469 4.128906 14.105469 -0.394531 L 14.105469 -13.652344 L 11.984375 -13.652344 L 11.984375 -11.589844 C 10.882812 -13.085938 9.242188 -13.992188 7.40625 -13.992188 C 3.816406 -13.992188 1.328125 -11.277344 1.328125 -6.898438 C 1.328125 -2.488281 3.84375 0.167969 7.40625 0.167969 C 9.328125 0.167969 10.996094 -0.875 11.984375 -2.261719 L 11.984375 -0.3125 C 11.984375 2.683594 9.867188 3.789062 7.605469 3.789062 C 5.652344 3.789062 4.296875 3.277344 3.164062 1.921875 Z M 11.984375 -3.929688 C 11.25 -2.742188 9.609375 -1.695312 7.914062 -1.695312 C 5.171875 -1.695312 3.535156 -3.902344 3.535156 -6.898438 C 3.535156 -9.921875 5.171875 -12.097656 7.914062 -12.097656 C 9.609375 -12.097656 11.25 -11.082031 11.984375 -9.894531 Z M 11.984375 -3.929688 "/></g></g></g><g fill="#000000" fill-opacity="1"><g transform="translate(223.955389, 41.061955)"><g><path d="M 1.328125 -6.839844 C 1.328125 -2.574219 4.238281 0.339844 8.28125 0.339844 C 10.515625 0.339844 12.351562 -0.394531 13.710938 -1.753906 L 12.691406 -3.136719 C 11.617188 -2.035156 10.035156 -1.414062 8.480469 -1.414062 C 5.539062 -1.414062 3.730469 -3.5625 3.5625 -6.132812 L 14.613281 -6.132812 L 14.613281 -6.671875 C 14.613281 -10.769531 12.183594 -13.992188 8.054688 -13.992188 C 4.15625 -13.992188 1.328125 -10.796875 1.328125 -6.839844 Z M 8.027344 -12.238281 C 11.136719 -12.238281 12.496094 -9.722656 12.523438 -7.6875 L 3.5625 -7.6875 C 3.675781 -9.78125 5.117188 -12.238281 8.027344 -12.238281 Z M 8.027344 -12.238281 "/></g></g></g><g transform="matrix(1, 0, 0, 1, 93, 45)"><g clip-path="url(#e449fe598c)"><g fill="#000000" fill-opacity="1"><g transform="translate(0.953973, 11.479761)"><g><path d="M 5.09375 -3.6875 L 6.703125 0 L 5.59375 0 L 4.125 -3.5 L 1.859375 -3.5 L 1.859375 0 L 0.859375 0 L 0.859375 -8.3125 L 3.953125 -8.3125 C 4.753906 -8.3125 5.394531 -8.113281 5.875 -7.71875 C 6.351562 -7.332031 6.59375 -6.738281 6.59375 -5.9375 C 6.59375 -5.375 6.460938 -4.898438 6.203125 -4.515625 C 5.941406 -4.128906 5.570312 -3.851562 5.09375 -3.6875 Z M 1.859375 -4.40625 L 3.828125 -4.40625 C 4.398438 -4.40625 4.835938 -4.53125 5.140625 -4.78125 C 5.441406 -5.039062 5.59375 -5.414062 5.59375 -5.90625 C 5.59375 -6.382812 5.4375 -6.753906 5.125 -7.015625 C 4.8125 -7.273438 4.378906 -7.40625 3.828125 -7.40625 L 1.859375 -7.40625 Z M 1.859375 -4.40625 "/></g></g></g><g fill="#000000" fill-opacity="1"><g transform="translate(7.979531, 11.479761)"><g><path d="M 3.453125 0.109375 C 2.878906 0.109375 2.367188 -0.0234375 1.921875 -0.296875 C 1.484375 -0.566406 1.140625 -0.9375 0.890625 -1.40625 C 0.640625 -1.875 0.515625 -2.40625 0.515625 -3 C 0.515625 -3.539062 0.628906 -4.050781 0.859375 -4.53125 C 1.085938 -5.007812 1.414062 -5.394531 1.84375 -5.6875 C 2.28125 -5.976562 2.8125 -6.125 3.4375 -6.125 C 3.9375 -6.125 4.40625 -6.007812 4.84375 -5.78125 C 5.289062 -5.5625 5.648438 -5.226562 5.921875 -4.78125 C 6.203125 -4.34375 6.34375 -3.800781 6.34375 -3.15625 L 6.34375 -2.828125 L 1.4375 -2.828125 C 1.445312 -2.617188 1.488281 -2.421875 1.5625 -2.234375 C 1.707031 -1.765625 1.945312 -1.390625 2.28125 -1.109375 C 2.613281 -0.835938 3 -0.703125 3.4375 -0.703125 C 3.894531 -0.703125 4.273438 -0.820312 4.578125 -1.0625 C 4.890625 -1.3125 5.109375 -1.601562 5.234375 -1.9375 L 6.234375 -1.9375 C 6.109375 -1.5625 5.921875 -1.21875 5.671875 -0.90625 C 5.421875 -0.601562 5.113281 -0.359375 4.75 -0.171875 C 4.382812 0.015625 3.953125 0.109375 3.453125 0.109375 Z M 1.53125 -3.640625 L 5.34375 -3.640625 C 5.34375 -3.742188 5.328125 -3.847656 5.296875 -3.953125 C 5.273438 -4.054688 5.25 -4.148438 5.21875 -4.234375 C 5.0625 -4.585938 4.820312 -4.851562 4.5 -5.03125 C 4.1875 -5.21875 3.835938 -5.3125 3.453125 -5.3125 C 3.054688 -5.3125 2.707031 -5.21875 2.40625 -5.03125 C 2.101562 -4.84375 1.867188 -4.578125 1.703125 -4.234375 C 1.660156 -4.140625 1.625 -4.039062 1.59375 -3.9375 C 1.5625 -3.84375 1.539062 -3.742188 1.53125 -3.640625 Z M 1.53125 -3.640625 "/></g></g></g><g fill="#000000" fill-opacity="1"><g transform="translate(14.830797, 11.479761)"><g><path d="M 2.484375 0.109375 C 1.878906 0.109375 1.398438 -0.0390625 1.046875 -0.34375 C 0.691406 -0.65625 0.515625 -1.070312 0.515625 -1.59375 C 0.515625 -2.125 0.710938 -2.539062 1.109375 -2.84375 C 1.429688 -3.09375 1.894531 -3.28125 2.5 -3.40625 L 4.640625 -3.828125 C 4.640625 -4.296875 4.515625 -4.65625 4.265625 -4.90625 C 3.992188 -5.175781 3.625 -5.3125 3.15625 -5.3125 C 2.789062 -5.3125 2.46875 -5.210938 2.1875 -5.015625 C 1.914062 -4.828125 1.742188 -4.5625 1.671875 -4.21875 L 0.75 -4.21875 C 0.820312 -4.632812 0.972656 -4.984375 1.203125 -5.265625 C 1.441406 -5.554688 1.734375 -5.769531 2.078125 -5.90625 C 2.421875 -6.050781 2.785156 -6.125 3.171875 -6.125 C 3.515625 -6.125 3.84375 -6.070312 4.15625 -5.96875 C 4.46875 -5.875 4.726562 -5.722656 4.9375 -5.515625 C 5.144531 -5.304688 5.289062 -5.070312 5.375 -4.8125 C 5.46875 -4.5625 5.519531 -4.320312 5.53125 -4.09375 C 5.550781 -3.863281 5.5625 -3.679688 5.5625 -3.546875 L 5.5625 0 L 4.640625 0 L 4.640625 -0.953125 C 4.429688 -0.640625 4.1875 -0.398438 3.90625 -0.234375 C 3.707031 -0.109375 3.488281 -0.0195312 3.25 0.03125 C 3.007812 0.0820312 2.753906 0.109375 2.484375 0.109375 Z M 2.59375 -0.703125 C 2.957031 -0.703125 3.273438 -0.773438 3.546875 -0.921875 C 3.972656 -1.140625 4.265625 -1.425781 4.421875 -1.78125 C 4.578125 -2.132812 4.65625 -2.566406 4.65625 -3.078125 L 2.6875 -2.671875 C 2.238281 -2.585938 1.910156 -2.445312 1.703125 -2.25 C 1.535156 -2.082031 1.453125 -1.875 1.453125 -1.625 C 1.453125 -1.34375 1.550781 -1.117188 1.75 -0.953125 C 1.957031 -0.785156 2.238281 -0.703125 2.59375 -0.703125 Z M 2.59375 -0.703125 "/></g></g></g><g fill="#000000" fill-opacity="1"><g transform="translate(21.104773, 11.479761)"><g><path d="M 2.6875 0 L 2.171875 0 C 1.878906 0 1.625 -0.0390625 1.40625 -0.125 C 1.195312 -0.207031 1.035156 -0.359375 0.921875 -0.578125 C 0.804688 -0.804688 0.75 -1.117188 0.75 -1.515625 L 0.75 -8.3125 L 1.671875 -8.3125 L 1.671875 -1.65625 C 1.671875 -1.476562 1.679688 -1.328125 1.703125 -1.203125 C 1.734375 -1.078125 1.800781 -0.976562 1.90625 -0.90625 C 2.007812 -0.84375 2.171875 -0.8125 2.390625 -0.8125 L 2.6875 -0.8125 Z M 2.6875 0 "/></g></g></g><g fill="#000000" fill-opacity="1"><g transform="translate(24.121943, 11.479761)"><g/></g></g><g fill="#000000" fill-opacity="1"><g transform="translate(27.171799, 11.479761)"><g><path d="M 6.234375 0 L 0.859375 0 L 0.859375 -8.3125 L 6.234375 -8.3125 L 6.234375 -7.40625 L 1.859375 -7.40625 L 1.859375 -4.625 L 5.71875 -4.625 L 5.71875 -3.71875 L 1.859375 -3.71875 L 1.859375 -0.90625 L 6.234375 -0.90625 Z M 6.234375 0 "/></g></g></g><g fill="#000000" fill-opacity="1"><g transform="translate(33.881475, 11.479761)"><g><path d="M 3.203125 0.109375 C 2.429688 0.109375 1.804688 -0.0703125 1.328125 -0.4375 C 0.859375 -0.800781 0.570312 -1.300781 0.46875 -1.9375 L 1.4375 -1.9375 C 1.519531 -1.570312 1.703125 -1.273438 1.984375 -1.046875 C 2.265625 -0.816406 2.675781 -0.703125 3.21875 -0.703125 C 3.625 -0.703125 3.953125 -0.78125 4.203125 -0.9375 C 4.460938 -1.09375 4.59375 -1.328125 4.59375 -1.640625 C 4.59375 -1.890625 4.507812 -2.082031 4.34375 -2.21875 C 4.1875 -2.351562 3.976562 -2.457031 3.71875 -2.53125 C 3.46875 -2.601562 3.191406 -2.671875 2.890625 -2.734375 C 2.628906 -2.785156 2.367188 -2.84375 2.109375 -2.90625 C 1.859375 -2.96875 1.625 -3.054688 1.40625 -3.171875 C 1.195312 -3.296875 1.03125 -3.453125 0.90625 -3.640625 C 0.78125 -3.835938 0.71875 -4.09375 0.71875 -4.40625 C 0.71875 -4.78125 0.8125 -5.09375 1 -5.34375 C 1.195312 -5.601562 1.460938 -5.796875 1.796875 -5.921875 C 2.128906 -6.054688 2.5 -6.125 2.90625 -6.125 C 3.5625 -6.125 4.101562 -5.957031 4.53125 -5.625 C 4.96875 -5.289062 5.238281 -4.820312 5.34375 -4.21875 L 4.484375 -4.21875 C 4.390625 -4.601562 4.203125 -4.878906 3.921875 -5.046875 C 3.640625 -5.222656 3.300781 -5.3125 2.90625 -5.3125 C 2.507812 -5.3125 2.195312 -5.238281 1.96875 -5.09375 C 1.75 -4.945312 1.640625 -4.738281 1.640625 -4.46875 C 1.640625 -4.257812 1.710938 -4.09375 1.859375 -3.96875 C 2.015625 -3.851562 2.210938 -3.765625 2.453125 -3.703125 C 2.691406 -3.640625 2.945312 -3.582031 3.21875 -3.53125 C 3.488281 -3.476562 3.757812 -3.414062 4.03125 -3.34375 C 4.300781 -3.28125 4.550781 -3.1875 4.78125 -3.0625 C 5.007812 -2.9375 5.1875 -2.769531 5.3125 -2.5625 C 5.445312 -2.351562 5.515625 -2.078125 5.515625 -1.734375 C 5.515625 -1.179688 5.3125 -0.734375 4.90625 -0.390625 C 4.507812 -0.0546875 3.941406 0.109375 3.203125 0.109375 Z M 3.203125 0.109375 "/></g></g></g><g fill="#000000" fill-opacity="1"><g transform="translate(39.872256, 11.479761)"><g><path d="M 3.53125 0 L 2.6875 0 C 2.394531 0 2.140625 -0.0390625 1.921875 -0.125 C 1.703125 -0.207031 1.535156 -0.359375 1.421875 -0.578125 C 1.316406 -0.804688 1.265625 -1.117188 1.265625 -1.515625 L 1.265625 -5.203125 L 0.296875 -5.203125 L 0.296875 -6.015625 L 1.265625 -6.015625 L 1.265625 -8.3125 L 2.1875 -8.3125 L 2.1875 -6.015625 L 3.546875 -6.015625 L 3.546875 -5.203125 L 2.1875 -5.203125 L 2.1875 -1.703125 C 2.1875 -1.523438 2.195312 -1.367188 2.21875 -1.234375 C 2.25 -1.097656 2.3125 -0.992188 2.40625 -0.921875 C 2.507812 -0.847656 2.675781 -0.8125 2.90625 -0.8125 L 3.53125 -0.8125 Z M 3.53125 0 "/></g></g></g><g fill="#000000" fill-opacity="1"><g transform="translate(43.804384, 11.479761)"><g><path d="M 2.484375 0.109375 C 1.878906 0.109375 1.398438 -0.0390625 1.046875 -0.34375 C 0.691406 -0.65625 0.515625 -1.070312 0.515625 -1.59375 C 0.515625 -2.125 0.710938 -2.539062 1.109375 -2.84375 C 1.429688 -3.09375 1.894531 -3.28125 2.5 -3.40625 L 4.640625 -3.828125 C 4.640625 -4.296875 4.515625 -4.65625 4.265625 -4.90625 C 3.992188 -5.175781 3.625 -5.3125 3.15625 -5.3125 C 2.789062 -5.3125 2.46875 -5.210938 2.1875 -5.015625 C 1.914062 -4.828125 1.742188 -4.5625 1.671875 -4.21875 L 0.75 -4.21875 C 0.820312 -4.632812 0.972656 -4.984375 1.203125 -5.265625 C 1.441406 -5.554688 1.734375 -5.769531 2.078125 -5.90625 C 2.421875 -6.050781 2.785156 -6.125 3.171875 -6.125 C 3.515625 -6.125 3.84375 -6.070312 4.15625 -5.96875 C 4.46875 -5.875 4.726562 -5.722656 4.9375 -5.515625 C 5.144531 -5.304688 5.289062 -5.070312 5.375 -4.8125 C 5.46875 -4.5625 5.519531 -4.320312 5.53125 -4.09375 C 5.550781 -3.863281 5.5625 -3.679688 5.5625 -3.546875 L 5.5625 0 L 4.640625 0 L 4.640625 -0.953125 C 4.429688 -0.640625 4.1875 -0.398438 3.90625 -0.234375 C 3.707031 -0.109375 3.488281 -0.0195312 3.25 0.03125 C 3.007812 0.0820312 2.753906 0.109375 2.484375 0.109375 Z M 2.59375 -0.703125 C 2.957031 -0.703125 3.273438 -0.773438 3.546875 -0.921875 C 3.972656 -1.140625 4.265625 -1.425781 4.421875 -1.78125 C 4.578125 -2.132812 4.65625 -2.566406 4.65625 -3.078125 L 2.6875 -2.671875 C 2.238281 -2.585938 1.910156 -2.445312 1.703125 -2.25 C 1.535156 -2.082031 1.453125 -1.875 1.453125 -1.625 C 1.453125 -1.34375 1.550781 -1.117188 1.75 -0.953125 C 1.957031 -0.785156 2.238281 -0.703125 2.59375 -0.703125 Z M 2.59375 -0.703125 "/></g></g></g><g fill="#000000" fill-opacity="1"><g transform="translate(50.07836, 11.479761)"><g><path d="M 3.53125 0 L 2.6875 0 C 2.394531 0 2.140625 -0.0390625 1.921875 -0.125 C 1.703125 -0.207031 1.535156 -0.359375 1.421875 -0.578125 C 1.316406 -0.804688 1.265625 -1.117188 1.265625 -1.515625 L 1.265625 -5.203125 L 0.296875 -5.203125 L 0.296875 -6.015625 L 1.265625 -6.015625 L 1.265625 -8.3125 L 2.1875 -8.3125 L 2.1875 -6.015625 L 3.546875 -6.015625 L 3.546875 -5.203125 L 2.1875 -5.203125 L 2.1875 -1.703125 C 2.1875 -1.523438 2.195312 -1.367188 2.21875 -1.234375 C 2.25 -1.097656 2.3125 -0.992188 2.40625 -0.921875 C 2.507812 -0.847656 2.675781 -0.8125 2.90625 -0.8125 L 3.53125 -0.8125 Z M 3.53125 0 "/></g></g></g><g fill="#000000" fill-opacity="1"><g transform="translate(53.836211, 11.479761)"><g><path d="M 3.453125 0.109375 C 2.878906 0.109375 2.367188 -0.0234375 1.921875 -0.296875 C 1.484375 -0.566406 1.140625 -0.9375 0.890625 -1.40625 C 0.640625 -1.875 0.515625 -2.40625 0.515625 -3 C 0.515625 -3.539062 0.628906 -4.050781 0.859375 -4.53125 C 1.085938 -5.007812 1.414062 -5.394531 1.84375 -5.6875 C 2.28125 -5.976562 2.8125 -6.125 3.4375 -6.125 C 3.9375 -6.125 4.40625 -6.007812 4.84375 -5.78125 C 5.289062 -5.5625 5.648438 -5.226562 5.921875 -4.78125 C 6.203125 -4.34375 6.34375 -3.800781 6.34375 -3.15625 L 6.34375 -2.828125 L 1.4375 -2.828125 C 1.445312 -2.617188 1.488281 -2.421875 1.5625 -2.234375 C 1.707031 -1.765625 1.945312 -1.390625 2.28125 -1.109375 C 2.613281 -0.835938 3 -0.703125 3.4375 -0.703125 C 3.894531 -0.703125 4.273438 -0.820312 4.578125 -1.0625 C 4.890625 -1.3125 5.109375 -1.601562 5.234375 -1.9375 L 6.234375 -1.9375 C 6.109375 -1.5625 5.921875 -1.21875 5.671875 -0.90625 C 5.421875 -0.601562 5.113281 -0.359375 4.75 -0.171875 C 4.382812 0.015625 3.953125 0.109375 3.453125 0.109375 Z M 1.53125 -3.640625 L 5.34375 -3.640625 C 5.34375 -3.742188 5.328125 -3.847656 5.296875 -3.953125 C 5.273438 -4.054688 5.25 -4.148438 5.21875 -4.234375 C 5.0625 -4.585938 4.820312 -4.851562 4.5 -5.03125 C 4.1875 -5.21875 3.835938 -5.3125 3.453125 -5.3125 C 3.054688 -5.3125 2.707031 -5.21875 2.40625 -5.03125 C 2.101562 -4.84375 1.867188 -4.578125 1.703125 -4.234375 C 1.660156 -4.140625 1.625 -4.039062 1.59375 -3.9375 C 1.5625 -3.84375 1.539062 -3.742188 1.53125 -3.640625 Z M 1.53125 -3.640625 "/></g></g></g><g fill="#000000" fill-opacity="1"><g transform="translate(60.687477, 11.479761)"><g/></g></g><g fill="#000000" fill-opacity="1"><g transform="translate(63.737333, 11.479761)"><g><path d="M 3.859375 0.109375 C 3.316406 0.109375 2.800781 0.0195312 2.3125 -0.15625 C 1.832031 -0.332031 1.425781 -0.613281 1.09375 -1 C 0.757812 -1.394531 0.546875 -1.898438 0.453125 -2.515625 L 1.46875 -2.515625 C 1.550781 -2.066406 1.71875 -1.71875 1.96875 -1.46875 C 2.226562 -1.21875 2.53125 -1.039062 2.875 -0.9375 C 3.21875 -0.832031 3.5625 -0.78125 3.90625 -0.78125 C 4.488281 -0.78125 4.941406 -0.898438 5.265625 -1.140625 C 5.597656 -1.390625 5.765625 -1.757812 5.765625 -2.25 C 5.765625 -2.550781 5.703125 -2.796875 5.578125 -2.984375 C 5.453125 -3.171875 5.28125 -3.320312 5.0625 -3.4375 C 4.84375 -3.550781 4.597656 -3.644531 4.328125 -3.71875 C 4.054688 -3.789062 3.769531 -3.863281 3.46875 -3.9375 C 3.144531 -4 2.820312 -4.070312 2.5 -4.15625 C 2.1875 -4.25 1.898438 -4.367188 1.640625 -4.515625 C 1.390625 -4.671875 1.1875 -4.875 1.03125 -5.125 C 0.875 -5.382812 0.796875 -5.71875 0.796875 -6.125 C 0.796875 -6.601562 0.910156 -7.007812 1.140625 -7.34375 C 1.367188 -7.6875 1.6875 -7.953125 2.09375 -8.140625 C 2.5 -8.328125 2.972656 -8.421875 3.515625 -8.421875 C 3.984375 -8.421875 4.429688 -8.335938 4.859375 -8.171875 C 5.285156 -8.003906 5.648438 -7.75 5.953125 -7.40625 C 6.253906 -7.0625 6.445312 -6.597656 6.53125 -6.015625 L 5.5625 -6.015625 C 5.488281 -6.398438 5.34375 -6.703125 5.125 -6.921875 C 4.914062 -7.140625 4.671875 -7.296875 4.390625 -7.390625 C 4.109375 -7.484375 3.8125 -7.53125 3.5 -7.53125 C 2.945312 -7.53125 2.523438 -7.410156 2.234375 -7.171875 C 1.941406 -6.929688 1.796875 -6.613281 1.796875 -6.21875 C 1.796875 -5.882812 1.894531 -5.625 2.09375 -5.4375 C 2.289062 -5.25 2.550781 -5.109375 2.875 -5.015625 C 3.195312 -4.921875 3.546875 -4.832031 3.921875 -4.75 C 4.265625 -4.675781 4.601562 -4.59375 4.9375 -4.5 C 5.28125 -4.40625 5.585938 -4.273438 5.859375 -4.109375 C 6.128906 -3.941406 6.347656 -3.710938 6.515625 -3.421875 C 6.691406 -3.140625 6.78125 -2.769531 6.78125 -2.3125 C 6.78125 -1.582031 6.53125 -0.992188 6.03125 -0.546875 C 5.539062 -0.109375 4.816406 0.109375 3.859375 0.109375 Z M 3.859375 0.109375 "/></g></g></g><g fill="#000000" fill-opacity="1"><g transform="translate(71.067858, 11.479761)"><g><path d="M 3.453125 0.109375 C 2.878906 0.109375 2.367188 -0.0234375 1.921875 -0.296875 C 1.484375 -0.566406 1.140625 -0.9375 0.890625 -1.40625 C 0.640625 -1.875 0.515625 -2.40625 0.515625 -3 C 0.515625 -3.539062 0.628906 -4.050781 0.859375 -4.53125 C 1.085938 -5.007812 1.414062 -5.394531 1.84375 -5.6875 C 2.28125 -5.976562 2.8125 -6.125 3.4375 -6.125 C 3.9375 -6.125 4.40625 -6.007812 4.84375 -5.78125 C 5.289062 -5.5625 5.648438 -5.226562 5.921875 -4.78125 C 6.203125 -4.34375 6.34375 -3.800781 6.34375 -3.15625 L 6.34375 -2.828125 L 1.4375 -2.828125 C 1.445312 -2.617188 1.488281 -2.421875 1.5625 -2.234375 C 1.707031 -1.765625 1.945312 -1.390625 2.28125 -1.109375 C 2.613281 -0.835938 3 -0.703125 3.4375 -0.703125 C 3.894531 -0.703125 4.273438 -0.820312 4.578125 -1.0625 C 4.890625 -1.3125 5.109375 -1.601562 5.234375 -1.9375 L 6.234375 -1.9375 C 6.109375 -1.5625 5.921875 -1.21875 5.671875 -0.90625 C 5.421875 -0.601562 5.113281 -0.359375 4.75 -0.171875 C 4.382812 0.015625 3.953125 0.109375 3.453125 0.109375 Z M 1.53125 -3.640625 L 5.34375 -3.640625 C 5.34375 -3.742188 5.328125 -3.847656 5.296875 -3.953125 C 5.273438 -4.054688 5.25 -4.148438 5.21875 -4.234375 C 5.0625 -4.585938 4.820312 -4.851562 4.5 -5.03125 C 4.1875 -5.21875 3.835938 -5.3125 3.453125 -5.3125 C 3.054688 -5.3125 2.707031 -5.21875 2.40625 -5.03125 C 2.101562 -4.84375 1.867188 -4.578125 1.703125 -4.234375 C 1.660156 -4.140625 1.625 -4.039062 1.59375 -3.9375 C 1.5625 -3.84375 1.539062 -3.742188 1.53125 -3.640625 Z M 1.53125 -3.640625 "/></g></g></g><g fill="#000000" fill-opacity="1"><g transform="translate(77.919125, 11.479761)"><g><path d="M 1.703125 0 L 0.765625 0 L 0.765625 -6.015625 L 1.703125 -6.015625 L 1.703125 -5.1875 C 1.972656 -5.53125 2.265625 -5.769531 2.578125 -5.90625 C 2.898438 -6.050781 3.265625 -6.125 3.671875 -6.125 L 3.71875 -6.125 L 3.71875 -5.203125 L 3.390625 -5.203125 C 2.910156 -5.203125 2.523438 -5.054688 2.234375 -4.765625 C 2.054688 -4.597656 1.921875 -4.382812 1.828125 -4.125 C 1.742188 -3.863281 1.703125 -3.546875 1.703125 -3.171875 Z M 1.703125 0 "/></g></g></g><g fill="#000000" fill-opacity="1"><g transform="translate(81.873039, 11.479761)"><g><path d="M 3.203125 0 L 2.4375 0 L 0.21875 -6.015625 L 1.234375 -6.015625 L 2.828125 -1.5625 L 4.421875 -6.015625 L 5.4375 -6.015625 Z M 3.203125 0 "/></g></g></g><g fill="#000000" fill-opacity="1"><g transform="translate(87.526152, 11.479761)"><g><path d="M 1.234375 -7.0625 C 1.046875 -7.0625 0.878906 -7.125 0.734375 -7.25 C 0.597656 -7.382812 0.53125 -7.550781 0.53125 -7.75 C 0.53125 -7.9375 0.597656 -8.09375 0.734375 -8.21875 C 0.878906 -8.351562 1.046875 -8.421875 1.234375 -8.421875 C 1.429688 -8.421875 1.597656 -8.351562 1.734375 -8.21875 C 1.878906 -8.09375 1.953125 -7.9375 1.953125 -7.75 C 1.953125 -7.550781 1.878906 -7.382812 1.734375 -7.25 C 1.597656 -7.125 1.429688 -7.0625 1.234375 -7.0625 Z M 1.703125 0 L 0.765625 0 L 0.765625 -6.015625 L 1.703125 -6.015625 Z M 1.703125 0 "/></g></g></g><g fill="#000000" fill-opacity="1"><g transform="translate(89.998704, 11.479761)"><g><path d="M 3.4375 0.109375 C 2.875 0.109375 2.375 -0.0234375 1.9375 -0.296875 C 1.5 -0.566406 1.148438 -0.9375 0.890625 -1.40625 C 0.640625 -1.882812 0.515625 -2.425781 0.515625 -3.03125 C 0.515625 -3.632812 0.640625 -4.164062 0.890625 -4.625 C 1.140625 -5.09375 1.484375 -5.457031 1.921875 -5.71875 C 2.359375 -5.988281 2.863281 -6.125 3.4375 -6.125 C 4.113281 -6.125 4.6875 -5.953125 5.15625 -5.609375 C 5.625 -5.265625 5.925781 -4.800781 6.0625 -4.21875 L 5.078125 -4.21875 C 4.960938 -4.5625 4.753906 -4.828125 4.453125 -5.015625 C 4.160156 -5.210938 3.820312 -5.3125 3.4375 -5.3125 C 3.0625 -5.3125 2.722656 -5.210938 2.421875 -5.015625 C 2.117188 -4.828125 1.878906 -4.5625 1.703125 -4.21875 C 1.535156 -3.875 1.453125 -3.476562 1.453125 -3.03125 C 1.453125 -2.582031 1.535156 -2.179688 1.703125 -1.828125 C 1.878906 -1.484375 2.117188 -1.207031 2.421875 -1 C 2.722656 -0.800781 3.0625 -0.703125 3.4375 -0.703125 C 3.863281 -0.703125 4.226562 -0.816406 4.53125 -1.046875 C 4.832031 -1.273438 5.03125 -1.570312 5.125 -1.9375 L 6.109375 -1.9375 C 5.972656 -1.300781 5.660156 -0.800781 5.171875 -0.4375 C 4.691406 -0.0703125 4.113281 0.109375 3.4375 0.109375 Z M 3.4375 0.109375 "/></g></g></g><g fill="#000000" fill-opacity="1"><g transform="translate(96.555875, 11.479761)"><g><path d="M 3.453125 0.109375 C 2.878906 0.109375 2.367188 -0.0234375 1.921875 -0.296875 C 1.484375 -0.566406 1.140625 -0.9375 0.890625 -1.40625 C 0.640625 -1.875 0.515625 -2.40625 0.515625 -3 C 0.515625 -3.539062 0.628906 -4.050781 0.859375 -4.53125 C 1.085938 -5.007812 1.414062 -5.394531 1.84375 -5.6875 C 2.28125 -5.976562 2.8125 -6.125 3.4375 -6.125 C 3.9375 -6.125 4.40625 -6.007812 4.84375 -5.78125 C 5.289062 -5.5625 5.648438 -5.226562 5.921875 -4.78125 C 6.203125 -4.34375 6.34375 -3.800781 6.34375 -3.15625 L 6.34375 -2.828125 L 1.4375 -2.828125 C 1.445312 -2.617188 1.488281 -2.421875 1.5625 -2.234375 C 1.707031 -1.765625 1.945312 -1.390625 2.28125 -1.109375 C 2.613281 -0.835938 3 -0.703125 3.4375 -0.703125 C 3.894531 -0.703125 4.273438 -0.820312 4.578125 -1.0625 C 4.890625 -1.3125 5.109375 -1.601562 5.234375 -1.9375 L 6.234375 -1.9375 C 6.109375 -1.5625 5.921875 -1.21875 5.671875 -0.90625 C 5.421875 -0.601562 5.113281 -0.359375 4.75 -0.171875 C 4.382812 0.015625 3.953125 0.109375 3.453125 0.109375 Z M 1.53125 -3.640625 L 5.34375 -3.640625 C 5.34375 -3.742188 5.328125 -3.847656 5.296875 -3.953125 C 5.273438 -4.054688 5.25 -4.148438 5.21875 -4.234375 C 5.0625 -4.585938 4.820312 -4.851562 4.5 -5.03125 C 4.1875 -5.21875 3.835938 -5.3125 3.453125 -5.3125 C 3.054688 -5.3125 2.707031 -5.21875 2.40625 -5.03125 C 2.101562 -4.84375 1.867188 -4.578125 1.703125 -4.234375 C 1.660156 -4.140625 1.625 -4.039062 1.59375 -3.9375 C 1.5625 -3.84375 1.539062 -3.742188 1.53125 -3.640625 Z M 1.53125 -3.640625 "/></g></g></g><g fill="#000000" fill-opacity="1"><g transform="translate(103.407141, 11.479761)"><g><path d="M 3.203125 0.109375 C 2.429688 0.109375 1.804688 -0.0703125 1.328125 -0.4375 C 0.859375 -0.800781 0.570312 -1.300781 0.46875 -1.9375 L 1.4375 -1.9375 C 1.519531 -1.570312 1.703125 -1.273438 1.984375 -1.046875 C 2.265625 -0.816406 2.675781 -0.703125 3.21875 -0.703125 C 3.625 -0.703125 3.953125 -0.78125 4.203125 -0.9375 C 4.460938 -1.09375 4.59375 -1.328125 4.59375 -1.640625 C 4.59375 -1.890625 4.507812 -2.082031 4.34375 -2.21875 C 4.1875 -2.351562 3.976562 -2.457031 3.71875 -2.53125 C 3.46875 -2.601562 3.191406 -2.671875 2.890625 -2.734375 C 2.628906 -2.785156 2.367188 -2.84375 2.109375 -2.90625 C 1.859375 -2.96875 1.625 -3.054688 1.40625 -3.171875 C 1.195312 -3.296875 1.03125 -3.453125 0.90625 -3.640625 C 0.78125 -3.835938 0.71875 -4.09375 0.71875 -4.40625 C 0.71875 -4.78125 0.8125 -5.09375 1 -5.34375 C 1.195312 -5.601562 1.460938 -5.796875 1.796875 -5.921875 C 2.128906 -6.054688 2.5 -6.125 2.90625 -6.125 C 3.5625 -6.125 4.101562 -5.957031 4.53125 -5.625 C 4.96875 -5.289062 5.238281 -4.820312 5.34375 -4.21875 L 4.484375 -4.21875 C 4.390625 -4.601562 4.203125 -4.878906 3.921875 -5.046875 C 3.640625 -5.222656 3.300781 -5.3125 2.90625 -5.3125 C 2.507812 -5.3125 2.195312 -5.238281 1.96875 -5.09375 C 1.75 -4.945312 1.640625 -4.738281 1.640625 -4.46875 C 1.640625 -4.257812 1.710938 -4.09375 1.859375 -3.96875 C 2.015625 -3.851562 2.210938 -3.765625 2.453125 -3.703125 C 2.691406 -3.640625 2.945312 -3.582031 3.21875 -3.53125 C 3.488281 -3.476562 3.757812 -3.414062 4.03125 -3.34375 C 4.300781 -3.28125 4.550781 -3.1875 4.78125 -3.0625 C 5.007812 -2.9375 5.1875 -2.769531 5.3125 -2.5625 C 5.445312 -2.351562 5.515625 -2.078125 5.515625 -1.734375 C 5.515625 -1.179688 5.3125 -0.734375 4.90625 -0.390625 C 4.507812 -0.0546875 3.941406 0.109375 3.203125 0.109375 Z M 3.203125 0.109375 "/></g></g></g></g></g></svg>